<?xml version="1.0" standalone="no"?>
<!DOCTYPE svg PUBLIC "-//W3C//DTD SVG 20010904//EN"
 "http://www.w3.org/TR/2001/REC-SVG-20010904/DTD/svg10.dtd">
<svg version="1.0" xmlns="http://www.w3.org/2000/svg"
 width="260.000000pt" height="260.000000pt" viewBox="0 0 260.000000 260.000000"
 preserveAspectRatio="xMidYMid meet">
<metadata>
Created by potrace 1.11, written by Peter Selinger 2001-2013
</metadata>
<g transform="translate(0.000000,260.000000) scale(0.100000,-0.100000)"
fill="#000000" stroke="none">
<path d="M1043 2579 c-259 -54 -479 -173 -663 -358 -196 -197 -320 -437 -365
-710 -27 -158 -17 -378 23 -534 50 -190 147 -376 280 -532 189 -221 470 -379
766 -430 113 -19 314 -19 436 0 470 77 880 434 1023 891 49 156 60 242 54 439
-6 201 -25 297 -90 452 -175 414 -545 713 -974 788 -125 22 -373 19 -490 -6z"/>
<path d="M2300 400 c-11 -11 -20 -29 -20 -40 0 -27 35 -60 63 -60 29 0 57 29
57 58 0 28 -34 62 -60 62 -11 0 -29 -9 -40 -20z m7 -52 c-3 -7 -5 -2 -5 12 0
14 2 19 5 13 2 -7 2 -19 0 -25z m73 12 c0 -11 -4 -20 -9 -20 -5 0 -7 9 -4 20
3 11 7 20 9 20 2 0 4 -9 4 -20z m-35 -30 c3 -5 1 -10 -4 -10 -6 0 -11 5 -11
10 0 6 2 10 4 10 3 0 8 -4 11 -10z"/>
</g>
</svg>
